<svg width="301" height="248" viewBox="0 0 301 248" fill="none" xmlns="http://www.w3.org/2000/svg">
<g clip-path="url(#clip0_2097_8389)">
<rect width="300" height="247" transform="translate(0.662109 0.694336)" fill="#F6F4F2"/>
<path d="M31.1449 186.738C-7.79571 164.31 -7.79571 127.612 31.1449 105.184L53.2253 92.4649C92.1659 70.0364 155.883 70.0364 194.816 92.4649L271.456 136.6C310.396 159.029 310.396 195.726 271.456 218.154L249.375 230.873C210.435 253.302 146.717 253.302 107.785 230.873L31.1449 186.738Z" fill="#A89D92"/>
<path d="M48.7604 123.971L40.4906 128.735L32.2207 123.971L40.4906 119.206L48.7604 123.971Z" fill="#F6F4F2" stroke="#281D18" stroke-width="1.12" stroke-linecap="round" stroke-linejoin="round"/>
<path d="M50.5999 120.682V174.469L45.5936 171.59L42.3301 115.917L50.5999 120.682Z" fill="#F6F4F2" stroke="#281D18" stroke-linecap="round" stroke-linejoin="round"/>
<path d="M58.8695 115.917L55.5977 171.59L50.5996 174.469V120.682L58.8695 115.917Z" fill="#F6F4F2" stroke="#281D18" stroke-linecap="round" stroke-linejoin="round"/>
<path d="M150.752 178.365V232.152L145.754 229.274L142.482 173.601L150.752 178.365Z" fill="#F6F4F2" stroke="#281D18" stroke-linecap="round" stroke-linejoin="round"/>
<path d="M159.022 173.601L155.75 229.274L150.752 232.152V178.365L159.022 173.601Z" fill="#F6F4F2" stroke="#281D18" stroke-linecap="round" stroke-linejoin="round"/>
<path d="M250.901 120.682V174.469L245.903 171.59L242.631 115.917L250.901 120.682Z" fill="#F6F4F2" stroke="#281D18" stroke-linecap="round" stroke-linejoin="round"/>
<path d="M259.17 115.917L255.898 171.59L250.9 174.469V120.682L259.17 115.917Z" fill="#F6F4F2" stroke="#281D18" stroke-linecap="round" stroke-linejoin="round"/>
<path d="M46.0146 138.617C12.0967 119.083 12.0967 87.1174 46.0146 67.5837L60.6636 59.1454C94.5815 39.6117 150.078 39.6117 183.996 59.1454L244.639 94.0714C278.557 113.605 278.557 145.571 244.639 165.104L229.99 173.543C196.072 193.076 140.575 193.076 106.657 173.543L46.0146 138.617Z" fill="#F6F4F2"/>
<path d="M46.0146 138.617C12.0967 119.083 12.0967 87.1174 46.0146 67.5837L60.6636 59.1454C94.5815 39.6117 150.078 39.6117 183.996 59.1454L244.639 94.0714C278.557 113.605 278.557 145.571 244.639 165.104L229.99 173.543C196.072 193.076 140.575 193.076 106.657 173.543L46.0146 138.617Z" stroke="#281D18" stroke-linecap="round" stroke-linejoin="round"/>
<path d="M248.166 129.27C238.984 123.981 238.984 115.33 248.166 110.04C257.348 104.751 272.367 104.751 281.55 110.04C290.732 115.33 290.732 123.981 281.55 129.27C272.367 134.56 257.348 134.56 248.166 129.27Z" fill="#F6F4F2"/>
<path d="M248.166 129.27C238.984 123.981 238.984 115.33 248.166 110.04C257.348 104.751 272.367 104.751 281.55 110.04C290.732 115.33 290.732 123.981 281.55 129.27C272.367 134.56 257.348 134.56 248.166 129.27Z" stroke="#281D18" stroke-width="1.12" stroke-linecap="round" stroke-linejoin="round"/>
<path d="M264.858 81.6668V121.464L259.885 118.602L261.849 79.9365L264.858 81.6668Z" stroke="#281D18" stroke-width="1.12" stroke-linecap="round" stroke-linejoin="round"/>
<path d="M269.835 118.602L264.862 121.464V81.6668L267.87 79.9365L269.835 118.602Z" stroke="#281D18" stroke-width="1.12" stroke-linecap="round" stroke-linejoin="round"/>
<path d="M286.067 50.2247C291.829 53.5459 296.778 61.6808 297.058 68.315L297.715 83.6418C298.003 90.276 293.523 98.411 287.76 101.732L275.331 108.891C269.568 112.212 260.123 112.229 254.352 108.94L241.602 101.683C235.823 98.3946 235.823 93.0068 241.602 89.7184L254.352 82.4527C260.131 79.1643 265.187 71.0458 265.581 64.428L266.37 51.3481C266.773 44.7221 271.812 42.0159 277.575 45.3371L286.067 50.2247Z" fill="#F6F4F2"/>
<path d="M286.067 50.2247C291.829 53.5459 296.778 61.6808 297.058 68.315L297.715 83.6418C298.003 90.276 293.523 98.411 287.76 101.732L275.331 108.891C269.568 112.212 260.123 112.229 254.352 108.94L241.602 101.683C235.823 98.3946 235.823 93.0068 241.602 89.7184L254.352 82.4527C260.131 79.1643 265.187 71.0458 265.581 64.428L266.37 51.3481C266.773 44.7221 271.812 42.0159 277.575 45.3371L286.067 50.2247Z" stroke="#281D18" stroke-width="1.12" stroke-linecap="round" stroke-linejoin="round"/>
<path d="M286.067 47.8067C291.829 51.1279 296.778 59.2628 297.058 65.8971L297.715 81.2238C298.003 87.8581 293.523 95.993 287.76 99.3142L275.331 106.473C269.568 109.794 260.123 109.811 254.352 106.522L241.602 99.265C235.823 95.9766 235.823 90.5889 241.602 87.3004L254.352 80.0348C260.131 76.7464 265.187 68.6278 265.581 62.01L266.37 48.9302C266.773 42.3041 271.812 39.598 277.575 42.9192L286.067 47.8067Z" fill="#F6F4F2"/>
<path d="M286.067 47.8067C291.829 51.1279 296.778 59.2628 297.058 65.8971L297.715 81.2238C298.003 87.8581 293.523 95.993 287.76 99.3142L275.331 106.473C269.568 109.794 260.123 109.811 254.352 106.522L241.602 99.265C235.823 95.9766 235.823 90.5889 241.602 87.3004L254.352 80.0348C260.131 76.7464 265.187 68.6278 265.581 62.01L266.37 48.9302C266.773 42.3041 271.812 39.598 277.575 42.9192L286.067 47.8067Z" stroke="#281D18" stroke-width="1.12" stroke-linecap="round" stroke-linejoin="round"/>
<path d="M283.21 90.8083C279.067 85.7404 273.205 82.1075 266.826 80.6396" stroke="#281D18" stroke-width="1.12" stroke-linecap="round" stroke-linejoin="round"/>
<path d="M176.514 88.9228C167.331 83.6335 167.331 74.9819 176.514 69.6926C185.696 64.4033 200.715 64.4033 209.897 69.6926C219.08 74.9819 219.08 83.6335 209.897 88.9228C200.715 94.2122 185.696 94.2122 176.514 88.9228Z" fill="#F6F4F2"/>
<path d="M176.514 88.9228C167.331 83.6335 167.331 74.9819 176.514 69.6926C185.696 64.4033 200.715 64.4033 209.897 69.6926C219.08 74.9819 219.08 83.6335 209.897 88.9228C200.715 94.2122 185.696 94.2122 176.514 88.9228Z" stroke="#281D18" stroke-width="1.12" stroke-linecap="round" stroke-linejoin="round"/>
<path d="M193.202 41.3192V81.1164L188.229 78.2544L190.193 39.5889L193.202 41.3192Z" stroke="#281D18" stroke-width="1.12" stroke-linecap="round" stroke-linejoin="round"/>
<path d="M198.175 78.2544L193.201 81.1164V41.3192L196.21 39.5889L198.175 78.2544Z" stroke="#281D18" stroke-width="1.12" stroke-linecap="round" stroke-linejoin="round"/>
<path d="M214.41 9.877C220.173 13.1982 225.122 21.3331 225.401 27.9674L226.059 43.2942C226.347 49.9284 221.866 58.0633 216.104 61.3845L203.674 68.5436C197.912 71.8648 188.466 71.8812 182.696 68.5928L169.946 61.3353C164.167 58.0469 164.167 52.6592 169.946 49.3708L182.696 42.1051C188.475 38.8167 193.53 30.6981 193.925 24.0803L194.714 11.0005C195.117 4.37444 200.156 1.66827 205.919 4.98948L214.41 9.877Z" fill="#F6F4F2"/>
<path d="M214.41 9.877C220.173 13.1982 225.122 21.3331 225.401 27.9674L226.059 43.2942C226.347 49.9284 221.866 58.0633 216.104 61.3845L203.674 68.5436C197.912 71.8648 188.466 71.8812 182.696 68.5928L169.946 61.3353C164.167 58.0469 164.167 52.6592 169.946 49.3708L182.696 42.1051C188.475 38.8167 193.53 30.6981 193.925 24.0803L194.714 11.0005C195.117 4.37444 200.156 1.66827 205.919 4.98948L214.41 9.877Z" stroke="#281D18" stroke-width="1.12" stroke-linecap="round" stroke-linejoin="round"/>
<path d="M214.41 7.46684C220.173 10.7881 225.122 18.923 225.401 25.5572L226.059 40.884C226.347 47.5182 221.866 55.6532 216.104 58.9744L203.674 66.1334C197.912 69.4547 188.466 69.4711 182.696 66.1826L169.946 58.9252C164.167 55.6368 164.167 50.249 169.946 46.9606L182.696 39.6949C188.475 36.4065 193.53 28.288 193.925 21.6702L194.714 8.59032C195.117 1.96429 200.156 -0.741887 205.919 2.57933L214.41 7.46684Z" fill="#F6F4F2"/>
<path d="M214.41 7.46684C220.173 10.7881 225.122 18.923 225.401 25.5572L226.059 40.884C226.347 47.5182 221.866 55.6532 216.104 58.9744L203.674 66.1334C197.912 69.4547 188.466 69.4711 182.696 66.1826L169.946 58.9252C164.167 55.6368 164.167 50.249 169.946 46.9606L182.696 39.6949C188.475 36.4065 193.53 28.288 193.925 21.6702L194.714 8.59032C195.117 1.96429 200.156 -0.741887 205.919 2.57933L214.41 7.46684Z" stroke="#281D18" stroke-width="1.12" stroke-linecap="round" stroke-linejoin="round"/>
<path d="M210.819 49.4763C206.676 44.4083 200.815 40.7755 194.436 39.3076" stroke="#281D18" stroke-width="1.12" stroke-linecap="round" stroke-linejoin="round"/>
<path d="M46.0146 132.945C12.0967 113.411 12.0967 81.4455 46.0146 61.9118L60.6636 53.4735C94.5815 33.9398 150.078 33.9398 183.996 53.4735L244.639 88.3995C278.557 107.933 278.557 139.899 244.639 159.433L229.99 167.871C196.072 187.405 140.575 187.405 106.657 167.871L46.0146 132.945Z" fill="#F6F4F2"/>
<path d="M46.0146 132.945C12.0967 113.411 12.0967 81.4455 46.0146 61.9118L60.6636 53.4735C94.5815 33.9398 150.078 33.9398 183.996 53.4735L244.639 88.3995C278.557 107.933 278.557 139.899 244.639 159.433L229.99 167.871C196.072 187.405 140.575 187.405 106.657 167.871L46.0146 132.945Z" stroke="#281D18" stroke-linecap="round" stroke-linejoin="round"/>
<path d="M50.4715 201.704C59.6538 196.415 59.6538 187.763 50.4715 182.474C41.2892 177.185 26.2703 177.185 17.0879 182.474C7.90559 187.763 7.90559 196.415 17.0879 201.704C26.2703 206.993 41.2892 206.993 50.4715 201.704Z" fill="#F6F4F2"/>
<path d="M50.4715 201.704C59.6538 196.415 59.6538 187.763 50.4715 182.474C41.2892 177.185 26.2703 177.185 17.0879 182.474C7.90559 187.763 7.90559 196.415 17.0879 201.704C26.2703 206.993 41.2892 206.993 50.4715 201.704Z" stroke="#281D18" stroke-width="1.12" stroke-linecap="round" stroke-linejoin="round"/>
<path d="M33.7832 154.019V193.816L38.7566 190.954L36.7919 152.28L33.7832 154.019Z" stroke="#281D18" stroke-width="1.12" stroke-linecap="round" stroke-linejoin="round"/>
<path d="M28.8066 190.954L33.7801 193.816V154.019L30.7713 152.28L28.8066 190.954Z" stroke="#281D18" stroke-width="1.12" stroke-linecap="round" stroke-linejoin="round"/>
<path d="M60.9775 164.645C60.5171 166.392 59.136 168.057 56.8261 169.385L45.6873 175.814H44.2158C38.4039 175.814 33.5784 171.362 33.1263 165.58L32.2796 154.813C32.1974 153.378 31.8932 151.877 31.4082 150.368C35.987 149.909 40.8783 150.696 44.4049 152.722L56.8343 159.889C59.1525 161.234 60.5335 162.899 60.9857 164.645H60.9775Z" fill="#F6F4F2" stroke="#281D18" stroke-width="1.12" stroke-linecap="round" stroke-linejoin="round"/>
<path d="M60.9767 164.645C60.5163 166.392 59.1353 168.056 56.8253 169.385L45.6865 175.814H44.215C38.4031 175.814 33.5777 171.361 33.1255 165.58L32.2788 154.813C32.1966 153.377 31.8924 151.877 31.4074 150.368C31.1526 149.548 30.8402 148.72 30.4785 147.908C35.3122 147.235 40.6391 147.998 44.4041 150.155L56.8335 157.322C60.2862 159.315 61.6672 162.054 60.9849 164.645H60.9767Z" fill="#F6F4F2" stroke="#281D18" stroke-width="1.12" stroke-linecap="round" stroke-linejoin="round"/>
<path d="M56.8234 171.962L45.6846 178.391H45.6682L44.394 179.129C39.026 182.205 30.4684 182.426 24.6812 179.753C24.5825 179.703 24.4839 179.662 24.3934 179.613C24.0646 179.466 23.7522 179.302 23.4481 179.129L11.0104 171.962C10.6569 171.757 10.3199 171.536 9.99107 171.306C4.73815 167.665 0.841618 160.104 1.154 153.88L1.18688 153.224C1.12934 152.568 1.12112 151.928 1.154 151.305L1.81986 138.028C2.14868 131.394 7.13854 128.696 12.9094 132.009L21.097 136.724C24.936 138.939 28.4462 143.285 30.4931 147.902C30.8548 148.722 31.1672 149.55 31.422 150.362C31.907 151.871 32.2112 153.371 32.2934 154.807L33.1401 165.574C33.5922 171.355 38.4177 175.808 44.2296 175.808H45.701L56.8399 169.379C59.1498 168.05 60.5309 166.386 60.9912 164.639C61.6735 167.23 60.2843 169.969 56.8399 171.954L56.8234 171.962Z" fill="#F6F4F2" stroke="#281D18" stroke-width="1.12" stroke-linecap="round" stroke-linejoin="round"/>
<path d="M128.194 242.47C137.376 237.18 137.376 228.529 128.194 223.239C119.012 217.95 103.993 217.95 94.8106 223.239C85.6282 228.529 85.6282 237.18 94.8106 242.47C103.993 247.759 119.012 247.759 128.194 242.47Z" fill="#F6F4F2"/>
<path d="M128.194 242.47C137.376 237.18 137.376 228.529 128.194 223.239C119.012 217.95 103.993 217.95 94.8106 223.239C85.6282 228.529 85.6282 237.18 94.8106 242.47C103.993 247.759 119.012 247.759 128.194 242.47Z" stroke="#281D18" stroke-width="1.12" stroke-linecap="round" stroke-linejoin="round"/>
<path d="M111.498 194.776V234.582L116.471 231.711L114.507 193.046L111.498 194.776Z" stroke="#281D18" stroke-width="1.12" stroke-linecap="round" stroke-linejoin="round"/>
<path d="M106.525 231.711L111.499 234.582V194.776L108.49 193.046L106.525 231.711Z" stroke="#281D18" stroke-width="1.12" stroke-linecap="round" stroke-linejoin="round"/>
<path d="M138.693 205.411C138.232 207.158 136.851 208.823 134.541 210.151L123.386 216.581H121.915C116.111 216.581 111.285 212.128 110.833 206.346L109.987 195.579C109.896 194.144 109.592 192.643 109.115 191.126C113.694 190.675 118.585 191.462 122.112 193.488L134.541 200.655C136.86 202 138.241 203.665 138.693 205.411Z" fill="#F6F4F2" stroke="#281D18" stroke-width="1.12" stroke-linecap="round" stroke-linejoin="round"/>
<path d="M138.692 205.411C138.232 207.157 136.851 208.822 134.541 210.151L123.385 216.58H121.914C116.11 216.58 111.285 212.127 110.833 206.346L109.986 195.578C109.895 194.143 109.591 192.642 109.114 191.125C108.86 190.305 108.547 189.493 108.186 188.673C113.019 188.001 118.346 188.764 122.111 190.92L134.541 198.088C137.993 200.072 139.374 202.819 138.692 205.411Z" fill="#F6F4F2" stroke="#281D18" stroke-width="1.12" stroke-linecap="round" stroke-linejoin="round"/>
<path d="M134.542 212.716L123.387 219.137H123.379L122.105 219.875C116.737 222.958 108.179 223.18 102.392 220.498C102.293 220.466 102.194 220.416 102.104 220.367C101.775 220.211 101.463 220.047 101.159 219.875L88.721 212.716C88.3676 212.511 88.0305 212.29 87.7017 212.06C82.4406 208.419 78.5358 200.858 78.8646 194.634L78.8975 193.978C78.84 193.338 78.8235 192.69 78.8646 192.059L79.5305 178.782C79.8593 172.148 84.8492 169.45 90.6118 172.763L98.8076 177.478C102.647 179.692 106.157 184.039 108.204 188.656C108.565 189.476 108.878 190.288 109.133 191.108C109.609 192.625 109.914 194.134 110.004 195.561L110.851 206.328C111.303 212.109 116.128 216.562 121.932 216.562H123.403L134.559 210.133C136.869 208.804 138.25 207.14 138.71 205.393C139.392 207.984 138.003 210.723 134.559 212.708L134.542 212.716Z" fill="#F6F4F2" stroke="#281D18" stroke-width="1.12" stroke-linecap="round" stroke-linejoin="round"/>
<path d="M231.561 230.431C222.378 225.141 222.378 216.49 231.561 211.2C240.743 205.911 255.762 205.911 264.944 211.2C274.126 216.49 274.126 225.141 264.944 230.431C255.762 235.72 240.743 235.72 231.561 230.431Z" fill="#F6F4F2"/>
<path d="M231.561 230.431C222.378 225.141 222.378 216.49 231.561 211.2C240.743 205.911 255.762 205.911 264.944 211.2C274.126 216.49 274.126 225.141 264.944 230.431C255.762 235.72 240.743 235.72 231.561 230.431Z" stroke="#281D18" stroke-linecap="round" stroke-linejoin="round"/>
<path d="M248.253 182.745V222.542L243.279 219.68L245.244 181.015L248.253 182.745Z" stroke="#281D18" stroke-linecap="round" stroke-linejoin="round"/>
<path d="M253.229 219.68L248.256 222.542V182.745L251.265 181.015L253.229 219.68Z" stroke="#281D18" stroke-linecap="round" stroke-linejoin="round"/>
<path d="M251.568 176.634C251.206 177.454 250.894 178.283 250.639 179.094C250.154 180.612 249.858 182.104 249.768 183.547L248.921 194.306C248.469 200.088 243.644 204.541 237.84 204.541H236.368L225.213 198.111C222.903 196.783 221.522 195.118 221.062 193.372C220.379 190.78 221.761 188.041 225.213 186.049L237.643 178.881C241.408 176.725 246.734 175.962 251.568 176.634Z" fill="#F6F4F2" stroke="#281D18" stroke-linecap="round" stroke-linejoin="round"/>
<path d="M280.89 182.606C281.211 188.83 277.306 196.391 272.053 200.032C271.724 200.262 271.379 200.483 271.034 200.688L258.596 207.856C258.292 208.028 257.98 208.192 257.651 208.339C257.56 208.389 257.47 208.43 257.363 208.479C251.568 211.152 243.018 210.931 237.65 207.856L236.376 207.118H236.368L225.213 200.688C221.768 198.704 220.379 195.965 221.061 193.373C221.522 195.12 222.903 196.785 225.213 198.113L236.368 204.543H237.839C243.643 204.543 248.468 200.09 248.921 194.308L249.767 183.549C249.858 182.106 250.154 180.613 250.639 179.096C250.894 178.276 251.206 177.448 251.568 176.636C253.615 172.019 257.116 167.681 260.964 165.459L269.16 160.743C274.914 157.43 279.904 160.128 280.241 166.763L280.907 180.039C280.94 180.671 280.923 181.319 280.874 181.958L280.907 182.614L280.89 182.606Z" fill="#F6F4F2" stroke="#281D18" stroke-linecap="round" stroke-linejoin="round"/>
<path d="M56.8184 118.519L83.4858 133.879L100.848 123.882L74.1555 108.515L56.8184 118.519Z" fill="#F6F4F2" stroke="#281D18" stroke-width="1.12" stroke-linecap="round" stroke-linejoin="round"/>
<path d="M55.5332 117.773L56.8156 118.519L83.483 133.878L100.845 123.882L102.111 123.169L102.135 123.152L102.111 123.136L74.1527 107.038L55.5332 117.773Z" fill="#F6F4F2" stroke="#281D18" stroke-linecap="round" stroke-linejoin="round"/>
<path d="M66.7949 124.269L71.2176 121.71L77.8269 125.589L73.4536 128.106L66.7949 124.269Z" fill="#F6F4F2" stroke="#281D18" stroke-linecap="round" stroke-linejoin="round"/>
<path d="M106.921 101.297L78.9387 85.1826L75.4121 106.233L103.37 122.339L106.921 101.297Z" fill="#F6F4F2" stroke="#281D18" stroke-width="1.12" stroke-linecap="round" stroke-linejoin="round"/>
<path d="M55.5332 117.772V119.265L83.483 135.371L102.135 124.628L102.111 123.168L100.845 123.882L83.483 133.878L56.8156 118.519L55.5332 117.772Z" fill="#F6F4F2" stroke="#281D18" stroke-linecap="round" stroke-linejoin="round"/>
<path d="M102.111 123.169V123.136" stroke="#281D18" stroke-width="1.12" stroke-linecap="round" stroke-linejoin="round"/>
<path d="M105.664 102.101L77.6809 85.9873L74.1543 107.038L102.112 123.136L105.664 102.101Z" fill="#F6F4F2" stroke="#281D18" stroke-linecap="round" stroke-linejoin="round"/>
<path d="M103.63 103.052L79.0588 88.8975L76.1816 106.078L100.728 120.223L103.63 103.052Z" stroke="#281D18" stroke-linecap="round" stroke-linejoin="round"/>
<path d="M77.678 85.9863L78.9357 85.1826" stroke="#281D18" stroke-width="1.12" stroke-linecap="round" stroke-linejoin="round"/>
<path d="M105.662 102.1L106.92 101.296" stroke="#281D18" stroke-width="1.12" stroke-linecap="round" stroke-linejoin="round"/>
<path d="M102.111 123.134L103.369 122.339" stroke="#281D18" stroke-width="1.12" stroke-linecap="round" stroke-linejoin="round"/>
<path d="M73.1895 110.081L96.47 123.489" stroke="#281D18" stroke-linecap="round" stroke-linejoin="round"/>
<path d="M70.5527 111.702L93.8333 125.102" stroke="#281D18" stroke-linecap="round" stroke-linejoin="round"/>
<path d="M67.9122 113.319L91.201 126.719" stroke="#281D18" stroke-linecap="round" stroke-linejoin="round"/>
<path d="M65.2754 114.933L88.5642 128.34" stroke="#281D18" stroke-linecap="round" stroke-linejoin="round"/>
<path d="M64.5176 116.403L75.4673 110.089" stroke="#281D18" stroke-linecap="round" stroke-linejoin="round"/>
<path d="M67.5098 118.099L78.4513 111.784" stroke="#281D18" stroke-linecap="round" stroke-linejoin="round"/>
<path d="M70.4941 119.798L81.4357 113.483" stroke="#281D18" stroke-linecap="round" stroke-linejoin="round"/>
<path d="M73.4785 121.497L84.42 115.183" stroke="#281D18" stroke-linecap="round" stroke-linejoin="round"/>
<path d="M76.459 123.192L87.4005 116.878" stroke="#281D18" stroke-linecap="round" stroke-linejoin="round"/>
<path d="M79.4473 124.892L90.3888 118.577" stroke="#281D18" stroke-linecap="round" stroke-linejoin="round"/>
<path d="M82.4316 126.586L93.3732 120.28" stroke="#281D18" stroke-linecap="round" stroke-linejoin="round"/>
<path d="M85.4238 128.286L96.3654 121.979" stroke="#281D18" stroke-linecap="round" stroke-linejoin="round"/>
<path d="M198.768 144.221L215.932 134.331L239.245 147.723L222.097 157.604L198.768 144.221Z" fill="#F6F4F2" stroke="#281D18" stroke-linecap="round" stroke-linejoin="round"/>
<path d="M198.768 142.678L215.932 132.788L239.245 146.18L222.097 156.053L198.768 142.678Z" fill="#F6F4F2" stroke="#281D18" stroke-linecap="round" stroke-linejoin="round"/>
<path d="M198.768 142.679V144.22L222.097 157.604V156.054L198.768 142.679Z" fill="#F6F4F2" stroke="#281D18" stroke-linecap="round" stroke-linejoin="round"/>
<path d="M138.239 96.1539C138.033 95.9489 137.869 95.7357 137.721 95.5225H137.959C138.041 95.7357 138.14 95.9489 138.239 96.1539Z" fill="#F6F4F2" stroke="#281D18" stroke-linecap="round" stroke-linejoin="round"/>
<path d="M156.384 95.5225C156.253 95.7111 156.105 95.9079 155.924 96.0883C156.014 95.8997 156.096 95.7111 156.17 95.5225H156.376H156.384Z" fill="#F6F4F2" stroke="#281D18" stroke-linecap="round" stroke-linejoin="round"/>
<path d="M157.903 96.0967L153.225 105.659C153.225 106.577 152.625 107.487 151.417 108.176C149.016 109.562 145.095 109.562 142.695 108.176C141.494 107.487 140.894 106.577 140.894 105.667L136.217 96.1213C136.759 97.0561 137.672 97.9336 138.954 98.6717C139.628 99.0571 140.376 99.3933 141.157 99.6639C144.807 100.919 149.427 100.91 153.052 99.6229C153.801 99.3605 154.499 99.0489 155.14 98.6798C156.439 97.9336 157.36 97.0397 157.894 96.0967H157.903Z" fill="#F6F4F2" stroke="#281D18" stroke-linecap="round" stroke-linejoin="round"/>
<path d="M136.216 96.1293C136.092 95.9243 135.994 95.7275 135.92 95.5225L136.216 96.1293Z" fill="#F6F4F2" stroke="#281D18" stroke-linecap="round" stroke-linejoin="round"/>
<path d="M138.24 96.1548C138.035 95.9497 137.871 95.7365 137.723 95.5233C137.394 95.0313 137.213 94.531 137.213 94.0226C137.213 93.7766 137.254 93.5224 137.344 93.2764C137.46 94.0554 137.665 94.8017 137.961 95.5233C138.043 95.7365 138.142 95.9497 138.24 96.1548Z" fill="#F6F4F2" stroke="#281D18" stroke-linecap="round" stroke-linejoin="round"/>
<path d="M158.18 95.524L157.901 96.0981C157.358 97.0411 156.446 97.935 155.147 98.6812C154.505 99.0503 153.807 99.3701 153.059 99.6243C149.433 100.912 144.813 100.92 141.164 99.6653C140.383 99.3947 139.643 99.0667 138.96 98.673C137.678 97.935 136.757 97.0575 136.223 96.1227L135.927 95.5158C135.269 93.8675 135.705 92.1044 137.251 90.6201V91.8502C137.251 92.3258 137.292 92.8015 137.349 93.2689C137.267 93.5149 137.218 93.7691 137.218 94.0151C137.218 94.5236 137.39 95.0238 137.727 95.5158C137.875 95.7372 138.04 95.9423 138.245 96.1473C138.648 96.5573 139.15 96.9427 139.758 97.2871C141.649 98.3778 144.304 99.0011 147.049 99.0011C149.795 99.0011 152.459 98.3778 154.341 97.2871C154.982 96.9181 155.508 96.5081 155.919 96.0817C156.092 95.8931 156.248 95.7044 156.38 95.5158C156.709 95.0238 156.881 94.5154 156.889 94.0069C156.889 93.7773 156.848 93.5477 156.774 93.3181C156.848 92.8343 156.889 92.3586 156.889 91.8584V90.6365C158.41 92.1208 158.846 93.8757 158.188 95.5158L158.18 95.524Z" fill="#F6F4F2" stroke="#281D18" stroke-linecap="round" stroke-linejoin="round"/>
<path d="M156.779 93.3271C156.853 93.5568 156.894 93.7864 156.894 94.016C156.894 94.5244 156.721 95.0329 156.384 95.5249C156.253 95.7135 156.105 95.9103 155.924 96.0907C156.014 95.9021 156.096 95.7135 156.17 95.5249C156.458 94.8196 156.664 94.0898 156.771 93.3271H156.779Z" fill="#F6F4F2" stroke="#281D18" stroke-linecap="round" stroke-linejoin="round"/>
<path d="M158.176 95.5342C158.102 95.7228 158.012 95.9196 157.896 96.1L158.176 95.5342Z" fill="#F6F4F2" stroke="#281D18" stroke-linecap="round" stroke-linejoin="round"/>
<path d="M138.24 96.1548C138.035 95.9497 137.871 95.7365 137.723 95.5233C137.394 95.0313 137.213 94.531 137.213 94.0226C137.213 93.7766 137.254 93.5224 137.344 93.2764C137.46 94.0554 137.665 94.8017 137.961 95.5233C138.043 95.7365 138.142 95.9497 138.24 96.1548Z" fill="#F6F4F2" stroke="#281D18" stroke-linecap="round" stroke-linejoin="round"/>
<path d="M156.882 94.0238C156.882 94.5322 156.709 95.0407 156.372 95.5327C156.241 95.7213 156.093 95.9181 155.912 96.0985C156.003 95.9099 156.085 95.7213 156.159 95.5327C156.446 94.8275 156.652 94.0976 156.759 93.335C156.833 93.5646 156.874 93.7942 156.874 94.0238H156.882Z" fill="#F6F4F2" stroke="#281D18" stroke-linecap="round" stroke-linejoin="round"/>
<path d="M136.216 96.1293C136.092 95.9243 135.994 95.7275 135.92 95.5225L136.216 96.1293Z" fill="#F6F4F2" stroke="#281D18" stroke-linecap="round" stroke-linejoin="round"/>
<path d="M138.24 96.1548C138.035 95.9497 137.871 95.7365 137.723 95.5233C137.394 95.0313 137.213 94.531 137.213 94.0226C137.213 93.7766 137.254 93.5224 137.344 93.2764C137.46 94.0554 137.665 94.8017 137.961 95.5233C138.043 95.7365 138.142 95.9497 138.24 96.1548Z" fill="#F6F4F2" stroke="#281D18" stroke-linecap="round" stroke-linejoin="round"/>
<path d="M156.779 93.3271C156.853 93.5568 156.894 93.7864 156.894 94.016C156.894 94.5244 156.721 95.0329 156.384 95.5249C156.253 95.7135 156.105 95.9103 155.924 96.0907C156.014 95.9021 156.096 95.7135 156.17 95.5249C156.458 94.8196 156.664 94.0898 156.771 93.3271H156.779Z" fill="#F6F4F2" stroke="#281D18" stroke-linecap="round" stroke-linejoin="round"/>
<path d="M158.176 95.5342C158.102 95.7228 158.012 95.9196 157.896 96.1L158.176 95.5342Z" fill="#F6F4F2" stroke="#281D18" stroke-linecap="round" stroke-linejoin="round"/>
<path d="M138.24 96.1548C138.035 95.9497 137.871 95.7365 137.723 95.5233C137.394 95.0313 137.213 94.531 137.213 94.0226C137.213 93.7766 137.254 93.5224 137.344 93.2764C137.46 94.0554 137.665 94.8017 137.961 95.5233C138.043 95.7365 138.142 95.9497 138.24 96.1548Z" fill="#F6F4F2" stroke="#281D18" stroke-linecap="round" stroke-linejoin="round"/>
<path d="M156.882 94.0238C156.882 94.5322 156.709 95.0407 156.372 95.5327C156.241 95.7213 156.093 95.9181 155.912 96.0985C156.003 95.9099 156.085 95.7213 156.159 95.5327C156.446 94.8275 156.652 94.0976 156.759 93.335C156.833 93.5646 156.874 93.7942 156.874 94.0238H156.882Z" fill="#F6F4F2" stroke="#281D18" stroke-linecap="round" stroke-linejoin="round"/>
<path d="M156.883 80.4944V91.8768C156.883 92.3688 156.841 92.8526 156.767 93.3282C156.652 94.0909 156.455 94.8289 156.167 95.5342C156.093 95.7228 156.011 95.9196 155.921 96.1C155.51 96.5347 154.984 96.9365 154.342 97.3055C152.452 98.3962 149.796 99.0194 147.051 99.0194C144.305 99.0194 141.642 98.3962 139.759 97.3055C139.159 96.9611 138.649 96.5675 138.247 96.1656C138.148 95.9524 138.049 95.7392 137.967 95.526C137.671 94.8043 137.474 94.0581 137.351 93.279C137.285 92.8116 137.252 92.336 137.252 91.8604V80.4944C137.252 77.0338 139.085 73.8274 142.077 72.0725H142.094C145.168 70.252 148.991 70.252 152.065 72.0643C153.561 72.9417 154.77 74.1882 155.6 75.6397C156.439 77.0912 156.899 78.7559 156.899 80.4862L156.883 80.4944Z" fill="#F6F4F2" stroke="#281D18" stroke-linecap="round" stroke-linejoin="round"/>
<path d="M138.595 77.3107L142.401 80.2793C142.565 80.4105 142.713 80.5417 142.861 80.6975C143.083 80.9353 143.28 81.1895 143.436 81.4684C143.478 81.5422 143.527 81.6242 143.56 81.698C143.601 81.944 143.593 82.231 143.56 82.5344C143.436 83.4447 142.951 84.4944 142.228 85.4046C141.505 86.3149 140.609 87.0447 139.754 87.3891C139.482 87.4957 139.219 87.5696 138.981 87.5942C138.882 87.5778 138.792 87.5531 138.693 87.5203C138.381 87.4301 138.077 87.2989 137.781 87.1431C137.608 87.0447 137.444 86.9299 137.279 86.8069L133.481 83.8465C132.322 82.9445 131.73 81.5012 131.919 80.0497C132.117 78.549 133.111 77.2779 134.517 76.7202C135.199 76.4496 135.931 76.3758 136.638 76.4742C137.345 76.5726 138.019 76.8515 138.595 77.3107Z" fill="#F6F4F2" stroke="#281D18" stroke-linecap="round" stroke-linejoin="round"/>
<path d="M157.4 75.4167L155.369 77.8441C155.279 77.9507 155.189 78.0409 155.09 78.1311C154.934 78.2705 154.753 78.3935 154.572 78.4919C154.523 78.5165 154.473 78.5411 154.416 78.5657C154.251 78.5821 154.062 78.5739 153.865 78.5411C153.265 78.4345 152.591 78.0983 152.007 77.6062C151.424 77.1142 150.963 76.5156 150.758 75.9497C150.692 75.7693 150.651 75.5971 150.643 75.4413C150.659 75.3757 150.675 75.3183 150.692 75.2527C150.758 75.0477 150.848 74.8509 150.963 74.6622C151.029 74.5474 151.111 74.4408 151.193 74.3424L153.224 71.9233C153.84 71.1852 154.802 70.8326 155.756 70.9884C156.734 71.1524 157.548 71.8249 157.877 72.7597C158.041 73.2108 158.074 73.6946 157.992 74.1538C157.91 74.613 157.712 75.0477 157.4 75.4167Z" fill="#F6F4F2" stroke="#281D18" stroke-linecap="round" stroke-linejoin="round"/>
<path d="M154.172 72.2367L153.967 69.1123" stroke="#281D18" stroke-linecap="round" stroke-linejoin="round"/>
<path d="M156.779 74.4092L159.287 74.7208" stroke="#281D18" stroke-linecap="round" stroke-linejoin="round"/>
<path d="M135.732 78.0498L134.803 75.6553" stroke="#281D18" stroke-linecap="round" stroke-linejoin="round"/>
<path d="M133.62 82.0107L131.326 82.3224" stroke="#281D18" stroke-linecap="round" stroke-linejoin="round"/>
<path d="M141.025 80.869L141.231 78.5811" stroke="#281D18" stroke-linecap="round" stroke-linejoin="round"/>
<path d="M156.104 81.7461L158.2 79.9912" stroke="#281D18" stroke-linecap="round" stroke-linejoin="round"/>
<path d="M155.939 87.4213L158.965 86.1748" stroke="#281D18" stroke-linecap="round" stroke-linejoin="round"/>
<path d="M137.992 90.0479L135.287 89.0967" stroke="#281D18" stroke-linecap="round" stroke-linejoin="round"/>
<path d="M146.163 72.1116L144.174 68.5771" stroke="#281D18" stroke-linecap="round" stroke-linejoin="round"/>
<path d="M149.475 72.1273L150.831 69.0029" stroke="#281D18" stroke-linecap="round" stroke-linejoin="round"/>
<path d="M149.139 84.3857L151.038 81.9092" stroke="#281D18" stroke-linecap="round" stroke-linejoin="round"/>
<path d="M149.896 91.7013L153.135 90.1514" stroke="#281D18" stroke-linecap="round" stroke-linejoin="round"/>
<path d="M145.204 88.3582L143.346 86.4639" stroke="#281D18" stroke-linecap="round" stroke-linejoin="round"/>
<path d="M141.346 74.9239L138.74 72.2178" stroke="#281D18" stroke-linecap="round" stroke-linejoin="round"/>
</g>
<defs>
<clipPath id="clip0_2097_8389">
<rect width="300" height="247" fill="white" transform="translate(0.662109 0.694336)"/>
</clipPath>
</defs>
</svg>
