<svg width="33" height="34" viewBox="0 0 33 34" fill="none" xmlns="http://www.w3.org/2000/svg">
<path fill-rule="evenodd" clip-rule="evenodd" d="M0.239502 16.7381C0.239502 7.74846 7.52702 0.460938 16.5166 0.460938C25.5062 0.460938 32.7938 7.74846 32.7938 16.7381C32.7938 25.7277 25.5062 33.0152 16.5166 33.0152C7.52702 33.0152 0.239502 25.7277 0.239502 16.7381ZM16.5166 8.5995C20.9928 8.5995 24.6552 12.2619 24.6552 16.7381C24.6552 20.8073 21.705 24.2662 17.6357 24.8766V19.0779H19.5686L19.9755 16.7381H17.7374V15.2121C17.7374 14.6017 18.0426 13.9913 19.0599 13.9913H20.0772V11.9567C20.0772 11.9567 19.1617 11.7532 18.2461 11.7532C16.4149 11.7532 15.1941 12.8722 15.1941 14.9069V16.7381H13.1595V19.0779H15.1941V24.7749C11.3283 24.1645 8.37807 20.8073 8.37807 16.7381C8.37807 12.2619 12.0404 8.5995 16.5166 8.5995Z" fill="#F2BDEB"/>
</svg>
