<svg width="281" height="134" viewBox="0 0 281 134" fill="none" xmlns="http://www.w3.org/2000/svg">
<path d="M277.158 46.4479V26.5788C277.158 14.8181 267.644 5.24805 255.952 5.24805H26.0479C14.3562 5.24805 4.84229 14.8181 4.84229 26.5788V46.4479C4.84229 56.0465 11.1802 64.1835 19.8663 66.8494C11.1802 69.5153 4.84229 77.6524 4.84229 87.251V107.12C4.84229 118.881 14.3562 128.451 26.0479 128.451H75.6389C85.1492 128.451 93.2137 122.122 95.8959 113.431C98.5781 122.122 106.643 128.451 116.153 128.451H165.744C175.254 128.451 183.319 122.122 186.001 113.431C188.683 122.122 196.748 128.451 206.258 128.451H255.849C267.541 128.451 277.055 118.881 277.055 107.12V87.251C277.055 77.6702 270.742 69.5475 262.084 66.8637C270.798 64.2121 277.161 56.0644 277.161 46.4443L277.158 46.4479ZM75.6389 126.603H26.0479C15.3722 126.603 6.6861 117.866 6.6861 107.127V87.2582C6.6861 76.5195 15.3722 67.7821 26.0479 67.7821H75.6389C85.9734 67.7821 94.4393 75.9656 94.9722 86.229C94.9545 86.5685 94.9474 86.9115 94.9474 87.2582V107.127C94.9474 107.474 94.958 107.817 94.9722 108.156C94.4393 118.42 85.9699 126.603 75.6389 126.603ZM84.2646 67.7786H107.524C101.996 70.2658 97.7113 75.0615 95.8959 80.9436C94.0805 75.0615 89.7961 70.2658 84.2682 67.7786H84.2646ZM165.744 126.603H116.153C105.818 126.603 97.3525 118.42 96.8196 108.156C96.8374 107.817 96.8445 107.474 96.8445 107.127V87.2582C96.8445 86.9115 96.8338 86.5685 96.8196 86.229C97.3525 75.9656 105.822 67.7821 116.153 67.7821H165.744C176.079 67.7821 184.544 75.9656 185.077 86.229C185.06 86.5685 185.052 86.9115 185.052 87.2582V107.127C185.052 107.474 185.063 107.817 185.077 108.156C184.544 118.42 176.075 126.603 165.744 126.603ZM174.37 67.7786H197.629C192.101 70.2658 187.816 75.0615 186.001 80.9436C184.186 75.0615 179.901 70.2658 174.373 67.7786H174.37ZM275.211 87.2546V107.124C275.211 117.862 266.525 126.6 255.849 126.6H206.258C195.923 126.6 187.458 118.416 186.925 108.153C186.942 107.813 186.95 107.47 186.95 107.124V87.2546C186.95 86.908 186.939 86.5649 186.925 86.2254C187.458 75.9621 195.927 67.7786 206.258 67.7786H255.849C266.525 67.7786 275.211 76.516 275.211 87.2546ZM255.952 65.9274H26.0479C15.3722 65.9274 6.6861 57.19 6.6861 46.4514V26.5823C6.6861 15.8437 15.3722 7.10631 26.0479 7.10631H255.956C266.631 7.10631 275.317 15.8437 275.317 26.5823V46.4514C275.317 57.19 266.631 65.9274 255.956 65.9274H255.952Z" fill="#F6F4F2"/>
<path d="M228.306 111.959C226.291 111.959 224.653 110.312 224.653 108.286V102.372H219.168C217.665 102.372 216.369 101.564 215.697 100.21C215.026 98.8552 215.168 97.3257 216.077 96.1214L225.218 83.9712C225.957 82.9885 227.083 82.4238 228.309 82.4238C229.535 82.4238 230.661 82.9885 231.4 83.9712L240.541 96.1214C241.447 97.3292 241.589 98.8552 240.921 100.21C240.253 101.564 238.953 102.372 237.45 102.372H231.965V108.286C231.965 110.312 230.327 111.959 228.313 111.959H228.306Z" fill="#F6F4F2"/>
<path d="M141 114.201C139.693 114.201 138.63 113.132 138.63 111.817V102.951L134.349 107.257C133.902 107.708 133.305 107.958 132.673 107.958C132.04 107.958 131.443 107.711 130.996 107.257C130.072 106.328 130.072 104.813 130.996 103.884L135.277 99.5777H126.463C125.155 99.5777 124.093 98.5093 124.093 97.1942C124.093 95.8791 125.155 94.8106 126.463 94.8106H135.277L130.996 90.5044C130.072 89.5753 130.072 88.0601 130.996 87.131C131.443 86.6807 132.04 86.4305 132.673 86.4305C133.305 86.4305 133.902 86.6771 134.349 87.131L138.63 91.4371V82.5711C138.63 81.256 139.693 80.1875 141 80.1875C142.307 80.1875 143.37 81.256 143.37 82.5711V91.4371L147.65 87.131C148.098 86.6807 148.695 86.4305 149.327 86.4305C149.96 86.4305 150.556 86.6771 151.004 87.131C151.928 88.0601 151.928 89.5753 151.004 90.5044L146.723 94.8106H155.537C156.845 94.8106 157.907 95.8791 157.907 97.1942C157.907 98.5093 156.845 99.5777 155.537 99.5777H146.723L151.004 103.884C151.928 104.813 151.928 106.328 151.004 107.257C150.556 107.708 149.96 107.958 149.327 107.958C148.695 107.958 148.098 107.711 147.65 107.257L143.37 102.951V111.817C143.37 113.132 142.307 114.201 141 114.201Z" fill="#F6F4F2"/>
<path d="M47.9392 48.3525C47.7296 48.3525 47.5697 48.2274 47.5129 48.0166L43.3137 31.0921C43.2426 30.8027 42.9975 30.6097 42.7062 30.6097C42.4149 30.6097 42.1697 30.8027 42.0987 31.0921L37.935 48.0273C37.8817 48.2274 37.7219 48.3525 37.5087 48.3525H33.2029C32.9933 48.3525 32.8335 48.2274 32.7766 48.0166L27.0391 24.9313C27.0036 24.7597 27.0178 24.5989 27.0853 24.5167C27.1351 24.456 27.2274 24.4238 27.3589 24.4238H30.2294C30.4958 24.4238 30.5775 24.5239 30.6202 24.6883L34.8513 42.3846C34.9224 42.6777 35.1746 42.8707 35.4766 42.8707C35.7786 42.8707 36.0308 42.6777 36.1019 42.3882L40.4076 24.6775C40.4254 24.5918 40.4538 24.4238 40.7629 24.4238H44.6814C44.9905 24.4238 45.0189 24.5954 45.0331 24.6597L49.3425 42.3882C49.4135 42.6777 49.6658 42.8707 49.9677 42.8707C50.2697 42.8707 50.5219 42.6777 50.593 42.3882L54.8277 24.6775C54.8704 24.5239 54.9521 24.4238 55.2185 24.4238H58.089C58.1921 24.4238 58.3306 24.4417 58.3981 24.5239C58.462 24.6061 58.4798 24.7597 58.4407 24.942L52.6677 48.0238C52.6109 48.2275 52.4546 48.3525 52.2414 48.3525H47.9356H47.9392Z" fill="#F6F4F2"/>
<path d="M72.7186 48.954C69.2193 48.954 66.2706 47.8104 64.1888 45.6484C62.0324 43.4435 60.8955 40.2452 60.8955 36.3928C60.8955 32.5405 62.0359 29.3386 64.1888 27.1373C66.2706 24.9717 69.2193 23.8281 72.7186 23.8281C76.218 23.8281 79.1666 24.9717 81.2485 27.1337C83.4049 29.3386 84.5417 32.5369 84.5417 36.3893C84.5417 40.2416 83.4049 43.4435 81.2485 45.6448C79.1666 47.8104 76.218 48.954 72.7186 48.954ZM72.7186 27.3731C70.2105 27.3731 68.2281 28.145 66.8248 29.6709C65.3469 31.1968 64.5618 33.5197 64.5618 36.3928C64.5618 39.266 65.3469 41.5888 66.8319 43.1183C68.2317 44.6371 70.214 45.409 72.7222 45.409C75.2303 45.409 77.2127 44.6371 78.616 43.1112C80.0939 41.5888 80.879 39.2624 80.879 36.3893C80.879 33.5161 80.0939 31.1933 78.6089 29.6638C77.2127 28.145 75.2268 27.3731 72.7186 27.3731Z" fill="#F6F4F2"/>
<path d="M104.042 48.3525C103.754 48.3525 103.637 48.2596 103.403 47.8594L98.8944 39.3864C98.699 39.0862 98.4929 38.8468 97.9529 38.8468H93.6117C93.1889 38.8468 92.9082 39.1327 92.9082 39.5579V48.0059C92.9082 48.1989 92.7519 48.3525 92.5636 48.3525H89.7286C89.5368 48.3525 89.384 48.1989 89.384 48.0059V24.7705C89.384 24.5775 89.5403 24.4238 89.7286 24.4238H100.472C104.465 24.4238 107.36 27.3542 107.36 31.3887C107.36 34.1082 105.904 36.4775 103.46 37.7247C103.051 37.9427 102.813 38.1964 102.721 38.5073C102.635 38.8039 102.689 39.1255 102.891 39.4865L107.296 47.7522C107.374 47.9094 107.382 48.0738 107.307 48.1953C107.243 48.2989 107.129 48.3525 106.98 48.3525H104.042ZM93.6117 27.9009C93.2031 27.9009 92.9082 28.1975 92.9082 28.6121V34.7372C92.9082 35.1481 93.2031 35.4483 93.6117 35.4483H100.053C102.17 35.4483 103.769 33.8259 103.769 31.6746C103.769 29.5233 102.241 27.9009 100.053 27.9009H93.6117Z" fill="#F6F4F2"/>
<path d="M125.916 48.3529C125.585 48.3529 125.468 48.2778 125.237 48.0169L117.02 38.1682C116.903 38.0038 116.693 37.893 116.469 37.893C116.107 37.893 115.833 38.1717 115.833 38.5398V47.9383C115.833 48.1992 115.677 48.3564 115.418 48.3564H112.757C112.533 48.3564 112.305 48.2278 112.305 47.9383V24.8458C112.305 24.5564 112.533 24.4277 112.757 24.4277H115.418C115.677 24.4277 115.833 24.585 115.833 24.8458V33.9978C115.833 34.1872 115.911 34.3516 116.053 34.4695C116.171 34.566 116.32 34.6196 116.48 34.6196C116.693 34.6196 116.888 34.5267 117.02 34.3694L125.379 24.6958C125.535 24.5135 125.653 24.4313 125.951 24.4313H129.031C129.255 24.4313 129.351 24.5457 129.39 24.6386C129.45 24.7815 129.425 24.9566 129.326 25.0638L120.501 35.3522C120.231 35.6917 119.944 36.1991 120.459 36.8316L129.489 47.6775C129.621 47.8311 129.66 48.0098 129.596 48.1492C129.536 48.2814 129.394 48.3564 129.202 48.3564H125.912L125.916 48.3529Z" fill="#F6F4F2"/>
<path d="M141.067 48.954C135.351 48.954 131.656 45.9593 131.656 41.3208C131.656 41.0957 131.813 40.9384 132.001 40.9384H135.046C135.238 40.9384 135.39 41.0957 135.39 41.2851C135.39 44.0582 137.511 45.6913 141.064 45.6913C144.616 45.6913 146.563 44.2154 146.563 41.7425C146.563 39.8449 145.394 38.7585 142.78 38.2225L138.3 37.3077C134.356 36.5143 132.356 34.3345 132.356 30.8288C132.356 25.9937 136.818 23.8281 141.241 23.8281C146.45 23.8281 149.949 26.6119 149.949 30.7573V30.8288C149.949 31.0217 149.796 31.1754 149.604 31.1754H146.666C146.474 31.1754 146.322 31.0217 146.322 30.8288V30.7573C146.322 28.531 144.314 27.0908 141.206 27.0908C138.097 27.0908 136.055 28.3952 136.055 30.5822C136.055 32.7692 138.108 33.609 140.115 34.0307L144.251 34.8419C148.162 35.5995 150.23 37.8902 150.23 41.4602C150.23 46.0129 146.634 48.954 141.067 48.954Z" fill="#F6F4F2"/>
<path d="M165.776 48.954C162.277 48.954 159.328 47.8104 157.246 45.6484C155.09 43.4435 153.953 40.2452 153.953 36.3928C153.953 32.5405 155.093 29.3386 157.246 27.1373C159.328 24.9717 162.277 23.8281 165.776 23.8281C169.275 23.8281 172.224 24.9717 174.306 27.1337C176.462 29.3386 177.599 32.5369 177.599 36.3893C177.599 40.2416 176.459 43.4435 174.306 45.6448C172.224 47.8104 169.275 48.954 165.776 48.954ZM165.776 27.3731C163.268 27.3731 161.285 28.145 159.882 29.6709C158.404 31.1968 157.616 33.5232 157.616 36.3928C157.616 39.2624 158.401 41.5888 159.886 43.1183C161.282 44.6371 163.268 45.409 165.776 45.409C168.284 45.409 170.267 44.6371 171.67 43.1112C173.148 41.5853 173.936 39.2589 173.936 36.3893C173.936 33.5197 173.151 31.1933 171.666 29.6638C170.27 28.145 168.284 27.3731 165.776 27.3731Z" fill="#F6F4F2"/>
<path d="M192.655 48.954C189.056 48.954 186.154 47.7604 184.029 45.409C182.146 43.2434 181.148 40.1237 181.148 36.3893C181.148 32.6549 182.146 29.5387 184.036 27.366C186.157 25.0181 189.06 23.8281 192.659 23.8281C197.892 23.8281 202.162 27.1265 202.595 31.497C202.606 31.6543 202.574 31.7901 202.503 31.8687C202.453 31.9223 202.379 31.9509 202.286 31.9509H199.487C199.075 31.9509 198.968 31.765 198.918 31.5792C198.378 29.553 196.19 27.3731 192.662 27.3731C190.083 27.3731 188.14 28.1986 186.722 29.8925C185.458 31.4113 184.818 33.5947 184.818 36.3893C184.818 39.1838 185.458 41.3673 186.722 42.886C188.122 44.5585 190.119 45.409 192.666 45.409C196.194 45.409 198.382 43.2291 198.922 41.2029C198.972 41.0206 199.078 40.8348 199.487 40.8348H202.286C202.382 40.8348 202.453 40.8634 202.503 40.917C202.574 40.992 202.606 41.1278 202.595 41.2994C202.165 45.6591 197.895 48.9575 192.662 48.9575L192.655 48.954Z" fill="#F6F4F2"/>
<path d="M207.356 48.3525C207.132 48.3525 206.905 48.2239 206.905 47.9344V24.8419C206.905 24.5525 207.132 24.4238 207.356 24.4238H210.017C210.276 24.4238 210.432 24.5811 210.432 24.8419V47.9344C210.432 48.1953 210.276 48.3525 210.017 48.3525H207.356Z" fill="#F6F4F2"/>
<path d="M232.729 48.3529C232.53 48.3529 232.416 48.31 232.327 48.0598L230.611 43.4463C230.398 42.8746 229.99 42.7566 229.684 42.7566H220.76C220.454 42.7566 220.046 42.8746 219.833 43.4463L218.117 48.0598C218.042 48.2707 217.925 48.3564 217.715 48.3564H214.39C214.294 48.3564 214.163 48.335 214.092 48.2349C214.038 48.1599 214.028 48.0527 214.063 47.9455L222.842 24.7958C223.009 24.4277 223.24 24.4277 223.314 24.4277H227.13C227.332 24.4277 227.478 24.5492 227.567 24.7922L236.352 47.9633C236.398 48.0705 236.395 48.1706 236.349 48.2385C236.299 48.3135 236.192 48.3564 236.057 48.3564H232.732L232.729 48.3529ZM225.222 29.1056C224.934 29.1056 224.686 29.295 224.586 29.588L221.403 38.3433C221.268 38.7471 221.364 39.0044 221.467 39.1473C221.591 39.3224 221.794 39.4225 222.018 39.4225H228.387C228.611 39.4225 228.81 39.3224 228.938 39.1473C229.041 39.0044 229.137 38.7507 229.005 38.354L225.854 29.5808C225.758 29.295 225.51 29.1056 225.222 29.1056Z" fill="#F6F4F2"/>
<path d="M240.324 48.3525C240.132 48.3525 239.979 48.1989 239.979 48.0059V24.7705C239.979 24.5775 240.132 24.4238 240.324 24.4238H243.159C243.351 24.4238 243.504 24.5775 243.504 24.7705V44.0964C243.504 44.5073 243.799 44.8075 244.207 44.8075H254.638C254.829 44.8075 254.982 44.9612 254.982 45.1542V48.0059C254.982 48.1989 254.829 48.3525 254.638 48.3525H240.324Z" fill="#F6F4F2"/>
<path d="M50.8416 111.877C49.2145 111.877 47.8894 110.545 47.8894 108.908V100.163H39.1961C37.569 100.163 36.2439 98.8303 36.2439 97.1936C36.2439 95.5569 37.569 94.224 39.1961 94.224H47.8894V85.4794C47.8894 83.8427 49.2145 82.5098 50.8416 82.5098C52.4687 82.5098 53.7938 83.8427 53.7938 85.4794V94.224H62.4871C64.1142 94.224 65.4393 95.5569 65.4393 97.1936C65.4393 98.8303 64.1142 100.163 62.4871 100.163H53.7938V108.908C53.7938 110.545 52.4687 111.877 50.8416 111.877Z" fill="#F6F4F2"/>
</svg>
